<svg width="88" height="88" xmlns="http://www.w3.org/2000/svg" xmlns:xlink="http://www.w3.org/1999/xlink" xml:space="preserve" overflow="hidden"><defs><clipPath id="clip0"><path d="M886.044 569.026 857.197 627.488 915.658 656.335 944.506 597.874Z" fill-rule="evenodd" clip-rule="evenodd"/></clipPath><clipPath id="clip1"><path d="M886.044 569.026 857.197 627.488 915.658 656.335 944.506 597.874Z" fill-rule="evenodd" clip-rule="evenodd"/></clipPath><clipPath id="clip2"><path d="M886.044 569.026 857.197 627.488 915.658 656.335 944.506 597.874Z" fill-rule="evenodd" clip-rule="evenodd"/></clipPath></defs><g transform="translate(-857 -569)"><g clip-path="url(#clip0)"><g clip-path="url(#clip1)"><g clip-path="url(#clip2)"><path d="M28.3105 61.1682 0 32.8579 17.853 32.8579C20.1047 7.80335 41.736 4.02332 54.5653 4.02332 60.6464 4.02332 65.0096 4.85217 65.1915 4.88455L64.9493 7.41808C54.2505 7.41808 46.5757 10.2097 42.1387 15.7159 37.1182 21.9453 37.6638 30.0544 38.0404 32.8567L56.6201 32.8567 28.3105 61.1682Z" fill="#171717" transform="matrix(-0.442501 0.896768 0.896768 0.442501 886.044 569.026)"/></g></g></g></g></svg>