<svg width="99" height="92" xmlns="http://www.w3.org/2000/svg" xmlns:xlink="http://www.w3.org/1999/xlink" xml:space="preserve" overflow="hidden"><defs><clipPath id="clip0"><rect x="590" y="314" width="99" height="92"/></clipPath></defs><g clip-path="url(#clip0)" transform="translate(-590 -314)"><path d="M606.749 379.391C605.254 368.325 601.166 358.654 597.477 348.385 596.779 346.391 594.486 345.295 592.492 345.992 590.498 346.69 589.502 348.983 590.199 350.977 593.789 360.748 597.677 369.92 599.073 380.388 599.372 382.482 601.366 383.977 603.459 383.678 605.653 383.479 607.048 381.485 606.749 379.391Z" fill="#F6C25D" fill-rule="evenodd"/><path d="M635.363 390.657C645.931 368.724 653.807 342.802 656.798 318.476 657.097 316.382 655.601 314.388 653.508 314.089 651.414 313.79 649.52 315.285 649.221 317.379 646.23 340.908 638.653 366.032 628.483 387.168 627.586 389.062 628.384 391.455 630.278 392.352 632.172 393.249 634.465 392.651 635.363 390.657Z" fill="#F6C25D" fill-rule="evenodd"/><path d="M646.23 405.811C662.48 402.322 676.438 391.853 687.903 380.189 689.399 378.693 689.399 376.201 687.903 374.705 686.408 373.21 683.915 373.21 682.42 374.705 672.051 385.273 659.39 395.044 644.634 398.234 642.541 398.633 641.245 400.727 641.743 402.82 642.142 404.914 644.236 406.21 646.23 405.811Z" fill="#F6C25D" fill-rule="evenodd"/></g></svg>